<svg version="1.1" xmlns="http://www.w3.org/2000/svg" viewBox="0 0 1409.8362292989373 2025.190308478103" width="1409.8362292989373" height="2025.190308478103" filter="invert(93%) hue-rotate(180deg)">
  <!-- svg-source:excalidraw -->
  
  <defs>
    <style class="style-fonts">
      @font-face {
        font-family: "Virgil";
        src: url("https://excalidraw.com/Virgil.woff2");
      }
      @font-face {
        font-family: "Cascadia";
        src: url("https://excalidraw.com/Cascadia.woff2");
      }
    </style>
    
  </defs>
  <rect x="0" y="0" width="1409.8362292989373" height="2025.190308478103" fill="#ffffff"></rect><g transform="translate(591.8966026057268 10) rotate(0 139.453125 33.60000000000002)"><text x="0" y="0" font-family="Cascadia, Segoe UI Emoji" font-size="28px" fill="#1971c2" text-anchor="start" style="white-space: pre;" direction="ltr" dominant-baseline="text-before-edge">Async Javascript </text><text x="0" y="33.6" font-family="Cascadia, Segoe UI Emoji" font-size="28px" fill="#1971c2" text-anchor="start" style="white-space: pre;" direction="ltr" dominant-baseline="text-before-edge"> </text></g><g transform="translate(182.86863356631153 97.21388861625303) rotate(0 57.429954528808594 12.5)"><text x="0" y="0" font-family="Virgil, Segoe UI Emoji" font-size="20px" fill="#1e1e1e" text-anchor="start" style="white-space: pre;" direction="ltr" dominant-baseline="text-before-edge">Javascript </text></g><g transform="translate(304.7268506704329 182.15443609603233) rotate(0 126.73989868164062 37.5)"><text x="0" y="0" font-family="Virgil, Segoe UI Emoji" font-size="20px" fill="#1e1e1e" text-anchor="start" style="white-space: pre;" direction="ltr" dominant-baseline="text-before-edge">Single threaded language </text><text x="0" y="25" font-family="Virgil, Segoe UI Emoji" font-size="20px" fill="#1e1e1e" text-anchor="start" style="white-space: pre;" direction="ltr" dominant-baseline="text-before-edge"></text><text x="0" y="50" font-family="Virgil, Segoe UI Emoji" font-size="20px" fill="#1e1e1e" text-anchor="start" style="white-space: pre;" direction="ltr" dominant-baseline="text-before-edge">synchronous  </text></g><g stroke-linecap="round"><g transform="translate(236.71296205417912 124.53155824059513) rotate(0 18.89274683784828 51.48273513313654)"><path d="M0 0 C-0.31 14.64, -8.5 70.69, -1.89 87.85 C4.72 105.01, 32.75 100.45, 39.67 102.97 M0 0 C-0.31 14.64, -8.5 70.69, -1.89 87.85 C4.72 105.01, 32.75 100.45, 39.67 102.97" stroke="#1e1e1e" stroke-width="1" fill="none"></path></g><g transform="translate(236.71296205417912 124.53155824059513) rotate(0 18.89274683784828 51.48273513313654)"><path d="M39.67 102.97 L25.49 107.85 L26.82 95.24 L39.67 102.97" stroke="none" stroke-width="0" fill="#1e1e1e" fill-rule="evenodd"></path><path d="M39.67 102.97 C34.06 104.9, 28.45 106.83, 25.49 107.85 M39.67 102.97 C35.51 104.4, 31.34 105.84, 25.49 107.85 M25.49 107.85 C25.77 105.16, 26.06 102.47, 26.82 95.24 M25.49 107.85 C25.86 104.37, 26.22 100.9, 26.82 95.24 M26.82 95.24 C30.97 97.74, 35.13 100.23, 39.67 102.97 M26.82 95.24 C29.85 97.06, 32.88 98.89, 39.67 102.97 M39.67 102.97 C39.67 102.97, 39.67 102.97, 39.67 102.97 M39.67 102.97 C39.67 102.97, 39.67 102.97, 39.67 102.97" stroke="#1e1e1e" stroke-width="1" fill="none"></path></g></g><mask></mask><g stroke-linecap="round" transform="translate(292.4465652258316 174.5973373608931) rotate(0 143.1125572967007 46.75954842367446)"><path d="M23.38 0 C81.09 0, 138.79 0, 262.85 0 M23.38 0 C74.33 0, 125.27 0, 262.85 0 M262.85 0 C278.43 0, 286.23 7.79, 286.23 23.38 M262.85 0 C278.43 0, 286.23 7.79, 286.23 23.38 M286.23 23.38 C286.23 38.07, 286.23 52.76, 286.23 70.14 M286.23 23.38 C286.23 37.81, 286.23 52.24, 286.23 70.14 M286.23 70.14 C286.23 85.73, 278.43 93.52, 262.85 93.52 M286.23 70.14 C286.23 85.73, 278.43 93.52, 262.85 93.52 M262.85 93.52 C186.45 93.52, 110.05 93.52, 23.38 93.52 M262.85 93.52 C187.35 93.52, 111.85 93.52, 23.38 93.52 M23.38 93.52 C7.79 93.52, 0 85.73, 0 70.14 M23.38 93.52 C7.79 93.52, 0 85.73, 0 70.14 M0 70.14 C0 55.05, 0 39.97, 0 23.38 M0 70.14 C0 52.55, 0 34.95, 0 23.38 M0 23.38 C0 7.79, 7.79 0, 23.38 0 M0 23.38 C0 7.79, 7.79 0, 23.38 0" stroke="#1e1e1e" stroke-width="1" fill="none"></path></g><g transform="translate(698.6406222395696 116.97445950545489) rotate(0 138.91989135742182 50)"><text x="0" y="0" font-family="Virgil, Segoe UI Emoji" font-size="20px" fill="#1e1e1e" text-anchor="start" style="white-space: pre;" direction="ltr" dominant-baseline="text-before-edge">Execution context </text><text x="0" y="25" font-family="Virgil, Segoe UI Emoji" font-size="20px" fill="#1e1e1e" text-anchor="start" style="white-space: pre;" direction="ltr" dominant-baseline="text-before-edge"></text><text x="0" y="50" font-family="Virgil, Segoe UI Emoji" font-size="20px" fill="#1e1e1e" text-anchor="start" style="white-space: pre;" direction="ltr" dominant-baseline="text-before-edge">Execute one line at a time </text><text x="0" y="75" font-family="Virgil, Segoe UI Emoji" font-size="20px" fill="#1e1e1e" text-anchor="start" style="white-space: pre;" direction="ltr" dominant-baseline="text-before-edge"></text></g><g stroke-linecap="round"><g transform="translate(697.6959848976771 231.27557787443698) rotate(0 -1.8892746837848335 73.68171266760834)"><path d="M0 0 C-0.63 24.56, -3.15 122.8, -3.78 147.36 M0 0 C-0.63 24.56, -3.15 122.8, -3.78 147.36" stroke="#1e1e1e" stroke-width="1" fill="none"></path></g><g transform="translate(697.6959848976771 231.27557787443698) rotate(0 -1.8892746837848335 73.68171266760834)"><path d="M-3.78 147.36 L-9.77 133.61 L2.91 133.94 L-3.78 147.36" stroke="none" stroke-width="0" fill="#1e1e1e" fill-rule="evenodd"></path><path d="M-3.78 147.36 C-5.77 142.78, -7.77 138.2, -9.77 133.61 M-3.78 147.36 C-5.31 143.86, -6.83 140.35, -9.77 133.61 M-9.77 133.61 C-5.12 133.73, -0.46 133.85, 2.91 133.94 M-9.77 133.61 C-7.22 133.68, -4.67 133.74, 2.91 133.94 M2.91 133.94 C0.63 138.51, -1.65 143.09, -3.78 147.36 M2.91 133.94 C1.2 137.36, -0.5 140.79, -3.78 147.36 M-3.78 147.36 C-3.78 147.36, -3.78 147.36, -3.78 147.36 M-3.78 147.36 C-3.78 147.36, -3.78 147.36, -3.78 147.36" stroke="#1e1e1e" stroke-width="1" fill="none"></path></g></g><mask></mask><g transform="translate(732.6475665476964 263.39324749877915) rotate(0 60.329933166503906 50)"><text x="0" y="0" font-family="Virgil, Segoe UI Emoji" font-size="20px" fill="#1e1e1e" text-anchor="start" style="white-space: pre;" direction="ltr" dominant-baseline="text-before-edge">console.log();</text><text x="0" y="25" font-family="Virgil, Segoe UI Emoji" font-size="20px" fill="#1e1e1e" text-anchor="start" style="white-space: pre;" direction="ltr" dominant-baseline="text-before-edge"></text><text x="0" y="50" font-family="Virgil, Segoe UI Emoji" font-size="20px" fill="#1e1e1e" text-anchor="start" style="white-space: pre;" direction="ltr" dominant-baseline="text-before-edge">console.log();</text><text x="0" y="75" font-family="Virgil, Segoe UI Emoji" font-size="20px" fill="#1e1e1e" text-anchor="start" style="white-space: pre;" direction="ltr" dominant-baseline="text-before-edge"></text></g><g transform="translate(913.0732988491475 301.1787411744756) rotate(0 205.6698455810547 25)"><text x="0" y="0" font-family="Virgil, Segoe UI Emoji" font-size="20px" fill="#1e1e1e" text-anchor="start" style="white-space: pre;" direction="ltr" dominant-baseline="text-before-edge">each operation wait for the last one to </text><text x="0" y="25" font-family="Virgil, Segoe UI Emoji" font-size="20px" fill="#1e1e1e" text-anchor="start" style="white-space: pre;" direction="ltr" dominant-baseline="text-before-edge">execute the before operation</text></g><g transform="translate(432.2528918259086 358.80161902990994) rotate(0 43.75996398925781 25)"><text x="0" y="0" font-family="Virgil, Segoe UI Emoji" font-size="20px" fill="#1e1e1e" text-anchor="start" style="white-space: pre;" direction="ltr" dominant-baseline="text-before-edge">Default </text><text x="0" y="25" font-family="Virgil, Segoe UI Emoji" font-size="20px" fill="#1e1e1e" text-anchor="start" style="white-space: pre;" direction="ltr" dominant-baseline="text-before-edge">    js</text></g><g stroke-linecap="round" transform="translate(385.02102473128775 314.40366396096636) rotate(0 88.79591013788689 59.512152539222086)"><path d="M111.25 15 C128.16 26.51, 145.08 38.02, 155.34 45 M111.25 15 C128.67 26.85, 146.08 38.7, 155.34 45 M155.34 45 C177.59 60, 177.59 60, 155.34 75 M155.34 45 C177.59 60, 177.59 60, 155.34 75 M155.34 75 C139.75 85.26, 124.16 95.52, 111.25 104.02 M155.34 75 C143.08 83.07, 130.81 91.15, 111.25 104.02 M111.25 104.02 C89 119.02, 89 119.02, 66.75 104.02 M111.25 104.02 C89 119.02, 89 119.02, 66.75 104.02 M66.75 104.02 C50.68 93.54, 34.61 83.06, 22.25 75 M66.75 104.02 C49.14 92.54, 31.53 81.06, 22.25 75 M22.25 75 C0 60, 0 60, 22.25 45 M22.25 75 C0 60, 0 60, 22.25 45 M22.25 45 C37.71 34.58, 53.17 24.16, 66.75 15 M22.25 45 C36.09 35.67, 49.93 26.34, 66.75 15 M66.75 15 C89 0, 89 0, 111.25 15 M66.75 15 C89 0, 89 0, 111.25 15" stroke="#1e1e1e" stroke-width="1" fill="none"></path></g><g stroke-linecap="round"><g transform="translate(585.2841412124797 253.94687407985202) rotate(0 -19.960652730993274 41.622117554516876)"><path d="M0 0 C1.89 8.34, 19.88 36.19, 11.34 50.07 C2.79 63.94, -40.82 77.71, -51.26 83.24 M0 0 C1.89 8.34, 19.88 36.19, 11.34 50.07 C2.79 63.94, -40.82 77.71, -51.26 83.24" stroke="#1e1e1e" stroke-width="1" fill="none"></path></g><g transform="translate(585.2841412124797 253.94687407985202) rotate(0 -19.960652730993274 41.622117554516876)"><path d="M-51.26 83.24 L-41.21 72.11 L-36.27 83.79 L-51.26 83.24" stroke="none" stroke-width="0" fill="#1e1e1e" fill-rule="evenodd"></path><path d="M-51.26 83.24 C-47.25 78.81, -43.25 74.38, -41.21 72.11 M-51.26 83.24 C-48.98 80.72, -46.71 78.2, -41.21 72.11 M-41.21 72.11 C-39.91 75.17, -38.62 78.22, -36.27 83.79 M-41.21 72.11 C-40.03 74.89, -38.85 77.67, -36.27 83.79 M-36.27 83.79 C-40.88 83.62, -45.5 83.45, -51.26 83.24 M-36.27 83.79 C-42.24 83.57, -48.22 83.35, -51.26 83.24 M-51.26 83.24 C-51.26 83.24, -51.26 83.24, -51.26 83.24 M-51.26 83.24 C-51.26 83.24, -51.26 83.24, -51.26 83.24" stroke="#1e1e1e" stroke-width="1" fill="none"></path></g></g><mask></mask><g stroke-linecap="round" transform="translate(153.5848759676465 478.7705614502431) rotate(0 104.38242627911174 34.4792629790731)"><path d="M17.24 0 C75.32 0, 133.41 0, 191.53 0 M17.24 0 C80.58 0, 143.92 0, 191.53 0 M191.53 0 C203.02 0, 208.76 5.75, 208.76 17.24 M191.53 0 C203.02 0, 208.76 5.75, 208.76 17.24 M208.76 17.24 C208.76 31, 208.76 44.76, 208.76 51.72 M208.76 17.24 C208.76 30.04, 208.76 42.83, 208.76 51.72 M208.76 51.72 C208.76 63.21, 203.02 68.96, 191.53 68.96 M208.76 51.72 C208.76 63.21, 203.02 68.96, 191.53 68.96 M191.53 68.96 C148 68.96, 104.47 68.96, 17.24 68.96 M191.53 68.96 C154.81 68.96, 118.1 68.96, 17.24 68.96 M17.24 68.96 C5.75 68.96, 0 63.21, 0 51.72 M17.24 68.96 C5.75 68.96, 0 63.21, 0 51.72 M0 51.72 C0 41.08, 0 30.45, 0 17.24 M0 51.72 C0 42.2, 0 32.69, 0 17.24 M0 17.24 C0 5.75, 5.75 0, 17.24 0 M0 17.24 C0 5.75, 5.75 0, 17.24 0" stroke="#1e1e1e" stroke-width="1" fill="none"></path></g><g transform="translate(201.9573382575004 500.7498244293163) rotate(0 56.00996398925781 12.5)"><text x="56.00996398925781" y="0" font-family="Virgil, Segoe UI Emoji" font-size="20px" fill="#1e1e1e" text-anchor="middle" style="white-space: pre;" direction="ltr" dominant-baseline="text-before-edge">Call stack </text></g><g stroke-linecap="round" transform="translate(399.74421144074995 474.60100132185687) rotate(0 104.38242627911177 34.4792629790731)"><path d="M17.24 0 C81.35 0, 145.45 0, 191.53 0 M17.24 0 C80.87 0, 144.51 0, 191.53 0 M191.53 0 C203.02 0, 208.76 5.75, 208.76 17.24 M191.53 0 C203.02 0, 208.76 5.75, 208.76 17.24 M208.76 17.24 C208.76 27.95, 208.76 38.66, 208.76 51.72 M208.76 17.24 C208.76 26.59, 208.76 35.94, 208.76 51.72 M208.76 51.72 C208.76 63.21, 203.02 68.96, 191.53 68.96 M208.76 51.72 C208.76 63.21, 203.02 68.96, 191.53 68.96 M191.53 68.96 C122.31 68.96, 53.09 68.96, 17.24 68.96 M191.53 68.96 C139.88 68.96, 88.24 68.96, 17.24 68.96 M17.24 68.96 C5.75 68.96, 0 63.21, 0 51.72 M17.24 68.96 C5.75 68.96, 0 63.21, 0 51.72 M0 51.72 C0 38.29, 0 24.86, 0 17.24 M0 51.72 C0 42.39, 0 33.07, 0 17.24 M0 17.24 C0 5.75, 5.75 0, 17.24 0 M0 17.24 C0 5.75, 5.75 0, 17.24 0" stroke="#1e1e1e" stroke-width="1" fill="none"></path></g><g transform="translate(443.12669112562344 496.5802643009299) rotate(0 60.99994659423828 12.5)"><text x="60.99994659423828" y="0" font-family="Virgil, Segoe UI Emoji" font-size="20px" fill="#1e1e1e" text-anchor="middle" style="white-space: pre;" direction="ltr" dominant-baseline="text-before-edge">Memory heap</text></g><g transform="translate(300.9483013028631 668.6426671706143) rotate(0 172.95986938476562 12.5)"><text x="0" y="0" font-family="Virgil, Segoe UI Emoji" font-size="20px" fill="#1e1e1e" text-anchor="start" style="white-space: pre;" direction="ltr" dominant-baseline="text-before-edge">Blocking code vs Non blocking code </text></g><g stroke-linecap="round" transform="translate(124.30111836898175 837.7327513693565) rotate(0 120.91357976222906 124.69212912979864)"><path d="M32 0 C78.65 0, 125.29 0, 209.83 0 M32 0 C80.76 0, 129.52 0, 209.83 0 M209.83 0 C231.16 0, 241.83 10.67, 241.83 32 M209.83 0 C231.16 0, 241.83 10.67, 241.83 32 M241.83 32 C241.83 79.9, 241.83 127.79, 241.83 217.38 M241.83 32 C241.83 71.49, 241.83 110.98, 241.83 217.38 M241.83 217.38 C241.83 238.72, 231.16 249.38, 209.83 249.38 M241.83 217.38 C241.83 238.72, 231.16 249.38, 209.83 249.38 M209.83 249.38 C159.22 249.38, 108.61 249.38, 32 249.38 M209.83 249.38 C151.77 249.38, 93.72 249.38, 32 249.38 M32 249.38 C10.67 249.38, 0 238.72, 0 217.38 M32 249.38 C10.67 249.38, 0 238.72, 0 217.38 M0 217.38 C0 170.63, 0 123.88, 0 32 M0 217.38 C0 145.18, 0 72.98, 0 32 M0 32 C0 10.67, 10.67 0, 32 0 M0 32 C0 10.67, 10.67 0, 32 0" stroke="#1e1e1e" stroke-width="1" fill="none"></path></g><g stroke-linecap="round" transform="translate(515.934604493517 837.3417406085398) rotate(0 120.91357976222906 124.69212912979864)"><path d="M32 0 C77.36 0, 122.72 0, 209.83 0 M32 0 C87.27 0, 142.55 0, 209.83 0 M209.83 0 C231.16 0, 241.83 10.67, 241.83 32 M209.83 0 C231.16 0, 241.83 10.67, 241.83 32 M241.83 32 C241.83 73.47, 241.83 114.94, 241.83 217.38 M241.83 32 C241.83 97.44, 241.83 162.89, 241.83 217.38 M241.83 217.38 C241.83 238.72, 231.16 249.38, 209.83 249.38 M241.83 217.38 C241.83 238.72, 231.16 249.38, 209.83 249.38 M209.83 249.38 C140.21 249.38, 70.59 249.38, 32 249.38 M209.83 249.38 C156.85 249.38, 103.87 249.38, 32 249.38 M32 249.38 C10.67 249.38, 0 238.72, 0 217.38 M32 249.38 C10.67 249.38, 0 238.72, 0 217.38 M0 217.38 C0 156.23, 0 95.07, 0 32 M0 217.38 C0 177.31, 0 137.24, 0 32 M0 32 C0 10.67, 10.67 0, 32 0 M0 32 C0 10.67, 10.67 0, 32 0" stroke="#1e1e1e" stroke-width="1" fill="none"></path></g><g transform="translate(556.9450209557073 864.182596942344) rotate(0 89.67992401123047 12.5)"><text x="0" y="0" font-family="Virgil, Segoe UI Emoji" font-size="20px" fill="#1e1e1e" text-anchor="start" style="white-space: pre;" direction="ltr" dominant-baseline="text-before-edge">Non-Blocking code </text></g><g transform="translate(176.80979875414016 864.73622352342) rotate(0 68.9199447631836 12.5)"><text x="0" y="0" font-family="Virgil, Segoe UI Emoji" font-size="20px" fill="#1e1e1e" text-anchor="start" style="white-space: pre;" direction="ltr" dominant-baseline="text-before-edge">Blocking code </text></g><g transform="translate(149.806326600077 918.0269254302116) rotate(0 91.23993682861328 37.5)"><text x="0" y="0" font-family="Virgil, Segoe UI Emoji" font-size="20px" fill="#1e1e1e" text-anchor="start" style="white-space: pre;" direction="ltr" dominant-baseline="text-before-edge">Block the flow of </text><text x="0" y="25" font-family="Virgil, Segoe UI Emoji" font-size="20px" fill="#1e1e1e" text-anchor="start" style="white-space: pre;" direction="ltr" dominant-baseline="text-before-edge">program and read </text><text x="0" y="50" font-family="Virgil, Segoe UI Emoji" font-size="20px" fill="#1e1e1e" text-anchor="start" style="white-space: pre;" direction="ltr" dominant-baseline="text-before-edge">file</text></g><g transform="translate(223.48803926768517 1027.6048570897317) rotate(0 20.459983825683594 12.5)"><text x="0" y="0" font-family="Virgil, Segoe UI Emoji" font-size="20px" fill="#1e1e1e" text-anchor="start" style="white-space: pre;" direction="ltr" dominant-baseline="text-before-edge">Sync</text></g><g transform="translate(621.7339867854672 1041.3834064573014) rotate(0 26.369979858398438 12.5)"><text x="0" y="0" font-family="Virgil, Segoe UI Emoji" font-size="20px" fill="#1e1e1e" text-anchor="start" style="white-space: pre;" direction="ltr" dominant-baseline="text-before-edge">Async</text></g><g transform="translate(534.6636100852403 910.7553203707689) rotate(0 113.53990936279297 37.5)"><text x="0" y="0" font-family="Virgil, Segoe UI Emoji" font-size="20px" fill="#1e1e1e" text-anchor="start" style="white-space: pre;" direction="ltr" dominant-baseline="text-before-edge">Not Block the flow of </text><text x="0" y="25" font-family="Virgil, Segoe UI Emoji" font-size="20px" fill="#1e1e1e" text-anchor="start" style="white-space: pre;" direction="ltr" dominant-baseline="text-before-edge">program and read </text><text x="0" y="50" font-family="Virgil, Segoe UI Emoji" font-size="20px" fill="#1e1e1e" text-anchor="start" style="white-space: pre;" direction="ltr" dominant-baseline="text-before-edge">file</text></g><g stroke-linecap="round"><g transform="translate(416.19405701373773 696.0371500854944) rotate(0 -83.1280860865325 63.290701906791696)"><path d="M0 0 C-24.25 8.19, -117.76 28.02, -145.47 49.12 C-173.18 70.22, -162.79 113.67, -166.26 126.58 M0 0 C-24.25 8.19, -117.76 28.02, -145.47 49.12 C-173.18 70.22, -162.79 113.67, -166.26 126.58" stroke="#1e1e1e" stroke-width="1" fill="none"></path></g><g transform="translate(416.19405701373773 696.0371500854944) rotate(0 -83.1280860865325 63.290701906791696)"><path d="M-166.26 126.58 L-172.02 112.73 L-159.35 113.27 L-166.26 126.58" stroke="none" stroke-width="0" fill="#1e1e1e" fill-rule="evenodd"></path><path d="M-166.26 126.58 C-168.35 121.54, -170.45 116.5, -172.02 112.73 M-166.26 126.58 C-168.09 122.17, -169.92 117.76, -172.02 112.73 M-172.02 112.73 C-167.02 112.94, -162.02 113.15, -159.35 113.27 M-172.02 112.73 C-167.62 112.92, -163.22 113.1, -159.35 113.27 M-159.35 113.27 C-161.17 116.78, -162.99 120.29, -166.26 126.58 M-159.35 113.27 C-161.22 116.88, -163.1 120.49, -166.26 126.58 M-166.26 126.58 C-166.26 126.58, -166.26 126.58, -166.26 126.58 M-166.26 126.58 C-166.26 126.58, -166.26 126.58, -166.26 126.58" stroke="#1e1e1e" stroke-width="1" fill="none"></path></g></g><mask></mask><g stroke-linecap="round"><g transform="translate(432.2528918259087 697.9264247692792) rotate(0 91.62982216356409 60.4567898811145)"><path d="M0 0 C26.76 7.56, 130.05 25.19, 160.59 45.34 C191.13 65.49, 179.48 108.32, 183.26 120.91 M0 0 C26.76 7.56, 130.05 25.19, 160.59 45.34 C191.13 65.49, 179.48 108.32, 183.26 120.91" stroke="#1e1e1e" stroke-width="1" fill="none"></path></g><g transform="translate(432.2528918259087 697.9264247692792) rotate(0 91.62982216356409 60.4567898811145)"><path d="M183.26 120.91 L176.33 107.61 L189 107.05 L183.26 120.91" stroke="none" stroke-width="0" fill="#1e1e1e" fill-rule="evenodd"></path><path d="M183.26 120.91 C181.74 117.99, 180.22 115.07, 176.33 107.61 M183.26 120.91 C181.45 117.44, 179.65 113.97, 176.33 107.61 M176.33 107.61 C179.35 107.48, 182.36 107.35, 189 107.05 M176.33 107.61 C180.88 107.41, 185.44 107.21, 189 107.05 M189 107.05 C187.74 110.11, 186.47 113.16, 183.26 120.91 M189 107.05 C187.44 110.82, 185.88 114.59, 183.26 120.91 M183.26 120.91 C183.26 120.91, 183.26 120.91, 183.26 120.91 M183.26 120.91 C183.26 120.91, 183.26 120.91, 183.26 120.91" stroke="#1e1e1e" stroke-width="1" fill="none"></path></g></g><mask></mask><g transform="translate(384.07638738939556 904.8020026437179) rotate(0 57.55995178222656 37.5)"><text x="0" y="0" font-family="Virgil, Segoe UI Emoji" font-size="20px" fill="#1e1e1e" text-anchor="start" style="white-space: pre;" direction="ltr" dominant-baseline="text-before-edge">both </text><text x="0" y="25" font-family="Virgil, Segoe UI Emoji" font-size="20px" fill="#1e1e1e" text-anchor="start" style="white-space: pre;" direction="ltr" dominant-baseline="text-before-edge">depends on </text><text x="0" y="50" font-family="Virgil, Segoe UI Emoji" font-size="20px" fill="#1e1e1e" text-anchor="start" style="white-space: pre;" direction="ltr" dominant-baseline="text-before-edge">use cases</text></g><g stroke-linecap="round" transform="translate(10 1282.656939400685) rotate(0 208.29253388727716 205.93094053254617)"><path d="M32 0 C163.47 0, 294.94 0, 384.59 0 M32 0 C149.72 0, 267.44 0, 384.59 0 M384.59 0 C405.92 0, 416.59 10.67, 416.59 32 M384.59 0 C405.92 0, 416.59 10.67, 416.59 32 M416.59 32 C416.59 157.09, 416.59 282.18, 416.59 379.86 M416.59 32 C416.59 109.96, 416.59 187.92, 416.59 379.86 M416.59 379.86 C416.59 401.2, 405.92 411.86, 384.59 411.86 M416.59 379.86 C416.59 401.2, 405.92 411.86, 384.59 411.86 M384.59 411.86 C256.96 411.86, 129.34 411.86, 32 411.86 M384.59 411.86 C285.98 411.86, 187.37 411.86, 32 411.86 M32 411.86 C10.67 411.86, 0 401.2, 0 379.86 M32 411.86 C10.67 411.86, 0 401.2, 0 379.86 M0 379.86 C0 265.25, 0 150.64, 0 32 M0 379.86 C0 301.7, 0 223.53, 0 32 M0 32 C0 10.67, 10.67 0, 32 0 M0 32 C0 10.67, 10.67 0, 32 0" stroke="#1e1e1e" stroke-width="1" fill="none"></path></g><g stroke-linecap="round" transform="translate(538.9969114597516 1287.380126110147) rotate(0 252.2181702852746 196.01224844267588)"><path d="M32 0 C134.96 0, 237.92 0, 472.44 0 M32 0 C193.69 0, 355.38 0, 472.44 0 M472.44 0 C493.77 0, 504.44 10.67, 504.44 32 M472.44 0 C493.77 0, 504.44 10.67, 504.44 32 M504.44 32 C504.44 104.91, 504.44 177.82, 504.44 360.02 M504.44 32 C504.44 135.38, 504.44 238.76, 504.44 360.02 M504.44 360.02 C504.44 381.36, 493.77 392.02, 472.44 392.02 M504.44 360.02 C504.44 381.36, 493.77 392.02, 472.44 392.02 M472.44 392.02 C338 392.02, 203.56 392.02, 32 392.02 M472.44 392.02 C378.27 392.02, 284.1 392.02, 32 392.02 M32 392.02 C10.67 392.02, 0 381.36, 0 360.02 M32 392.02 C10.67 392.02, 0 381.36, 0 360.02 M0 360.02 C0 231.59, 0 103.16, 0 32 M0 360.02 C0 268.9, 0 177.77, 0 32 M0 32 C0 10.67, 10.67 0, 32 0 M0 32 C0 10.67, 10.67 0, 32 0" stroke="#1e1e1e" stroke-width="1" fill="none"></path></g><g stroke-linecap="round" transform="translate(27.003472154063388 1357.2832894101857) rotate(0 64.23533924868414 152.0866120446787)"><path d="M32 0 C55.02 0, 78.04 0, 96.47 0 M32 0 C54.32 0, 76.63 0, 96.47 0 M96.47 0 C117.8 0, 128.47 10.67, 128.47 32 M96.47 0 C117.8 0, 128.47 10.67, 128.47 32 M128.47 32 C128.47 107.51, 128.47 183.02, 128.47 272.17 M128.47 32 C128.47 123.69, 128.47 215.38, 128.47 272.17 M128.47 272.17 C128.47 293.51, 117.8 304.17, 96.47 304.17 M128.47 272.17 C128.47 293.51, 117.8 304.17, 96.47 304.17 M96.47 304.17 C75.75 304.17, 55.03 304.17, 32 304.17 M96.47 304.17 C76.21 304.17, 55.94 304.17, 32 304.17 M32 304.17 C10.67 304.17, 0 293.51, 0 272.17 M32 304.17 C10.67 304.17, 0 293.51, 0 272.17 M0 272.17 C0 223.59, 0 175, 0 32 M0 272.17 C0 219.84, 0 167.5, 0 32 M0 32 C0 10.67, 10.67 0, 32 0 M0 32 C0 10.67, 10.67 0, 32 0" stroke="#1e1e1e" stroke-width="1" fill="none"></path></g><g stroke-linecap="round"><g transform="translate(225.3773139514704 1359.1725640939705) rotate(0 73.20939399666202 139.3340079291311)"><path d="M0 0 C0.34 98.88, 0.67 197.76, 0.94 278.67 M0 0 C0.3 87.03, 0.59 174.05, 0.94 278.67 M0.94 278.67 C50.38 278.67, 99.81 278.67, 144.53 278.67 M0.94 278.67 C58.31 278.67, 115.67 278.67, 144.53 278.67 M144.53 278.67 C145.15 187.82, 145.76 96.97, 146.42 0 M144.53 278.67 C145.21 178.11, 145.89 77.56, 146.42 0" stroke="#1e1e1e" stroke-width="1" fill="none"></path></g></g><mask></mask><g transform="translate(54.39795506894342 1306.2728729479954) rotate(0 22.579978942871094 12.5)"><text x="0" y="0" font-family="Virgil, Segoe UI Emoji" font-size="20px" fill="#1e1e1e" text-anchor="start" style="white-space: pre;" direction="ltr" dominant-baseline="text-before-edge">Heap</text></g><g transform="translate(262.77179686635037 1308.715774212856) rotate(0 28.28997802734375 12.5)"><text x="0" y="0" font-family="Virgil, Segoe UI Emoji" font-size="20px" fill="#1e1e1e" text-anchor="start" style="white-space: pre;" direction="ltr" dominant-baseline="text-before-edge">Stack</text></g><g stroke-linecap="round" transform="translate(237.6575993960717 1572.660603361656) rotate(0 58.56751519732967 25.032889560148988)"><path d="M12.52 0 C40.97 0, 69.42 0, 104.62 0 M12.52 0 C45.87 0, 79.23 0, 104.62 0 M104.62 0 C112.96 0, 117.14 4.17, 117.14 12.52 M104.62 0 C112.96 0, 117.14 4.17, 117.14 12.52 M117.14 12.52 C117.14 19.97, 117.14 27.43, 117.14 37.55 M117.14 12.52 C117.14 20.95, 117.14 29.39, 117.14 37.55 M117.14 37.55 C117.14 45.89, 112.96 50.07, 104.62 50.07 M117.14 37.55 C117.14 45.89, 112.96 50.07, 104.62 50.07 M104.62 50.07 C78.76 50.07, 52.9 50.07, 12.52 50.07 M104.62 50.07 C74.55 50.07, 44.49 50.07, 12.52 50.07 M12.52 50.07 C4.17 50.07, 0 45.89, 0 37.55 M12.52 50.07 C4.17 50.07, 0 45.89, 0 37.55 M0 37.55 C0 31.75, 0 25.96, 0 12.52 M0 37.55 C0 29.13, 0 20.71, 0 12.52 M0 12.52 C0 4.17, 4.17 0, 12.52 0 M0 12.52 C0 4.17, 4.17 0, 12.52 0" stroke="#1e1e1e" stroke-width="1" fill="none"></path></g><g stroke-linecap="round" transform="translate(239.15586331904007 1512.7574400616174) rotate(0 58.56751519732967 25.032889560148988)"><path d="M12.52 0 C38.98 0, 65.44 0, 104.62 0 M12.52 0 C33.31 0, 54.1 0, 104.62 0 M104.62 0 C112.96 0, 117.14 4.17, 117.14 12.52 M104.62 0 C112.96 0, 117.14 4.17, 117.14 12.52 M117.14 12.52 C117.14 21.89, 117.14 31.27, 117.14 37.55 M117.14 12.52 C117.14 22.29, 117.14 32.06, 117.14 37.55 M117.14 37.55 C117.14 45.89, 112.96 50.07, 104.62 50.07 M117.14 37.55 C117.14 45.89, 112.96 50.07, 104.62 50.07 M104.62 50.07 C75.3 50.07, 45.99 50.07, 12.52 50.07 M104.62 50.07 C85.36 50.07, 66.11 50.07, 12.52 50.07 M12.52 50.07 C4.17 50.07, 0 45.89, 0 37.55 M12.52 50.07 C4.17 50.07, 0 45.89, 0 37.55 M0 37.55 C0 30.71, 0 23.87, 0 12.52 M0 37.55 C0 32.06, 0 26.57, 0 12.52 M0 12.52 C0 4.17, 4.17 0, 12.52 0 M0 12.52 C0 4.17, 4.17 0, 12.52 0" stroke="#1e1e1e" stroke-width="1" fill="none"></path></g><g stroke-linecap="round" transform="translate(237.82021521633106 1450.965002077794) rotate(0 58.56751519732967 25.032889560148988)"><path d="M12.52 0 C37.16 0, 61.81 0, 104.62 0 M12.52 0 C37.88 0, 63.25 0, 104.62 0 M104.62 0 C112.96 0, 117.14 4.17, 117.14 12.52 M104.62 0 C112.96 0, 117.14 4.17, 117.14 12.52 M117.14 12.52 C117.14 18.48, 117.14 24.45, 117.14 37.55 M117.14 12.52 C117.14 17.91, 117.14 23.3, 117.14 37.55 M117.14 37.55 C117.14 45.89, 112.96 50.07, 104.62 50.07 M117.14 37.55 C117.14 45.89, 112.96 50.07, 104.62 50.07 M104.62 50.07 C68.99 50.07, 33.36 50.07, 12.52 50.07 M104.62 50.07 C80.22 50.07, 55.82 50.07, 12.52 50.07 M12.52 50.07 C4.17 50.07, 0 45.89, 0 37.55 M12.52 50.07 C4.17 50.07, 0 45.89, 0 37.55 M0 37.55 C0 32.54, 0 27.53, 0 12.52 M0 37.55 C0 32.28, 0 27.01, 0 12.52 M0 12.52 C0 4.17, 4.17 0, 12.52 0 M0 12.52 C0 4.17, 4.17 0, 12.52 0" stroke="#1e1e1e" stroke-width="1" fill="none"></path></g><g transform="translate(264.10744496905926 1583.0516141224725) rotate(0 30.439979553222656 12.5)"><text x="0" y="0" font-family="Virgil, Segoe UI Emoji" font-size="20px" fill="#1e1e1e" text-anchor="start" style="white-space: pre;" direction="ltr" dominant-baseline="text-before-edge">Global</text></g><g transform="translate(275.996719652844 1525.0377255062187) rotate(0 10.409996032714844 12.5)"><text x="0" y="0" font-family="Virgil, Segoe UI Emoji" font-size="20px" fill="#1e1e1e" text-anchor="start" style="white-space: pre;" direction="ltr" dominant-baseline="text-before-edge">Fn</text></g><g transform="translate(283.1628076271667 1465.1345622061801) rotate(0 10.409996032714844 12.5)"><text x="0" y="0" font-family="Virgil, Segoe UI Emoji" font-size="20px" fill="#1e1e1e" text-anchor="start" style="white-space: pre;" direction="ltr" dominant-baseline="text-before-edge">Fn</text></g><g transform="translate(57.23186709462067 1240.1482590155263) rotate(0 89.90992736816406 12.5)"><text x="0" y="0" font-family="Virgil, Segoe UI Emoji" font-size="20px" fill="#1e1e1e" text-anchor="start" style="white-space: pre;" direction="ltr" dominant-baseline="text-before-edge">Javascript engine </text></g><g transform="translate(565.0557462719229 1238.8126109128175) rotate(0 103.38993835449219 12.5)"><text x="0" y="0" font-family="Virgil, Segoe UI Emoji" font-size="20px" fill="#1e1e1e" text-anchor="start" style="white-space: pre;" direction="ltr" dominant-baseline="text-before-edge">Web API / Node API</text></g><g transform="translate(568.4432848786761 1304.5462140844697) rotate(0 41.509971618652344 12.5)"><text x="0" y="0" font-family="Virgil, Segoe UI Emoji" font-size="20px" fill="#1e1e1e" text-anchor="start" style="white-space: pre;" direction="ltr" dominant-baseline="text-before-edge">DOM api</text></g><g transform="translate(565.4467570327392 1370.5082121966796) rotate(0 57.81993865966797 12.5)"><text x="0" y="0" font-family="Virgil, Segoe UI Emoji" font-size="20px" fill="#1e1e1e" text-anchor="start" style="white-space: pre;" direction="ltr" dominant-baseline="text-before-edge">SetTimeOut</text></g><g transform="translate(565.0557462719225 1415.4597938466989) rotate(0 62.26995086669922 12.5)"><text x="0" y="0" font-family="Virgil, Segoe UI Emoji" font-size="20px" fill="#1e1e1e" text-anchor="start" style="white-space: pre;" direction="ltr" dominant-baseline="text-before-edge">SetInterval </text></g><g transform="translate(588.2806690584164 1467.023836889965) rotate(0 26.819976806640625 12.5)"><text x="0" y="0" font-family="Virgil, Segoe UI Emoji" font-size="20px" fill="#1e1e1e" text-anchor="start" style="white-space: pre;" direction="ltr" dominant-baseline="text-before-edge">Fetch</text></g><g stroke-linecap="round" transform="translate(561.6682076651696 1456.4702103088891) rotate(0 48.64882310745941 20.309702850686904)"><path d="M10.15 0 C37.13 0, 64.11 0, 87.14 0 M10.15 0 C29.27 0, 48.38 0, 87.14 0 M87.14 0 C93.91 0, 97.3 3.38, 97.3 10.15 M87.14 0 C93.91 0, 97.3 3.38, 97.3 10.15 M97.3 10.15 C97.3 14.23, 97.3 18.31, 97.3 30.46 M97.3 10.15 C97.3 17.14, 97.3 24.12, 97.3 30.46 M97.3 30.46 C97.3 37.23, 93.91 40.62, 87.14 40.62 M97.3 30.46 C97.3 37.23, 93.91 40.62, 87.14 40.62 M87.14 40.62 C66.8 40.62, 46.47 40.62, 10.15 40.62 M87.14 40.62 C62.84 40.62, 38.54 40.62, 10.15 40.62 M10.15 40.62 C3.38 40.62, 0 37.23, 0 30.46 M10.15 40.62 C3.38 40.62, 0 37.23, 0 30.46 M0 30.46 C0 23.58, 0 16.69, 0 10.15 M0 30.46 C0 24.86, 0 19.25, 0 10.15 M0 10.15 C0 3.38, 3.38 0, 10.15 0 M0 10.15 C0 3.38, 3.38 0, 10.15 0" stroke="#1e1e1e" stroke-width="1" fill="none"></path></g><g stroke-linecap="round" transform="translate(827.1113007369379 1363.8957508034325) rotate(0 96.35300887302628 31.17303228244964)"><path d="M15.59 0 C72.43 0, 129.27 0, 177.12 0 M15.59 0 C79.48 0, 143.38 0, 177.12 0 M177.12 0 C187.51 0, 192.71 5.2, 192.71 15.59 M177.12 0 C187.51 0, 192.71 5.2, 192.71 15.59 M192.71 15.59 C192.71 25.4, 192.71 35.21, 192.71 46.76 M192.71 15.59 C192.71 22, 192.71 28.42, 192.71 46.76 M192.71 46.76 C192.71 57.15, 187.51 62.35, 177.12 62.35 M192.71 46.76 C192.71 57.15, 187.51 62.35, 177.12 62.35 M177.12 62.35 C131.15 62.35, 85.17 62.35, 15.59 62.35 M177.12 62.35 C127.95 62.35, 78.79 62.35, 15.59 62.35 M15.59 62.35 C5.2 62.35, 0 57.15, 0 46.76 M15.59 62.35 C5.2 62.35, 0 57.15, 0 46.76 M0 46.76 C0 37.43, 0 28.1, 0 15.59 M0 46.76 C0 39.5, 0 32.24, 0 15.59 M0 15.59 C0 5.2, 5.2 0, 15.59 0 M0 15.59 C0 5.2, 5.2 0, 15.59 0" stroke="#1e1e1e" stroke-width="1" fill="none"></path></g><g transform="translate(844.1147728910014 1381.8438602993883) rotate(0 83.88993072509766 12.5)"><text x="0" y="0" font-family="Virgil, Segoe UI Emoji" font-size="20px" fill="#1e1e1e" text-anchor="start" style="white-space: pre;" direction="ltr" dominant-baseline="text-before-edge">Register callback</text></g><g stroke-linecap="round"><g transform="translate(663.6890405895504 1480.0861438561994) rotate(0 46.32924216295282 116.1903930527669)"><path d="M0 0 C12.6 4.57, 60.13 -11.34, 75.57 27.39 C91.01 66.12, 89.81 198.22, 92.66 232.38 M0 0 C12.6 4.57, 60.13 -11.34, 75.57 27.39 C91.01 66.12, 89.81 198.22, 92.66 232.38" stroke="#1e1e1e" stroke-width="1" fill="none"></path></g><g transform="translate(663.6890405895504 1480.0861438561994) rotate(0 46.32924216295282 116.1903930527669)"><path d="M92.66 232.38 L85.79 219.04 L98.46 218.55 L92.66 232.38" stroke="none" stroke-width="0" fill="#1e1e1e" fill-rule="evenodd"></path><path d="M92.66 232.38 C90.75 228.68, 88.85 224.97, 85.79 219.04 M92.66 232.38 C91.24 229.62, 89.81 226.85, 85.79 219.04 M85.79 219.04 C89.69 218.89, 93.58 218.74, 98.46 218.55 M85.79 219.04 C89.07 218.92, 92.35 218.79, 98.46 218.55 M98.46 218.55 C97.16 221.65, 95.86 224.74, 92.66 232.38 M98.46 218.55 C97.2 221.57, 95.93 224.59, 92.66 232.38 M92.66 232.38 C92.66 232.38, 92.66 232.38, 92.66 232.38 M92.66 232.38 C92.66 232.38, 92.66 232.38, 92.66 232.38" stroke="#1e1e1e" stroke-width="1" fill="none"></path></g></g><mask></mask><g transform="translate(778.934796300425 1587.7748008319347) rotate(0 35.869956970214844 12.5)"><text x="0" y="0" font-family="Virgil, Segoe UI Emoji" font-size="20px" fill="#1e1e1e" text-anchor="start" style="white-space: pre;" direction="ltr" dominant-baseline="text-before-edge">Promise</text></g><g stroke-linecap="round" transform="translate(605.1215253922209 1720.0240286968728) rotate(0 162.0053041345489 43.45331772705106)"><path d="M21.73 0 C122.92 0, 224.11 0, 302.28 0 M21.73 0 C107.52 0, 193.31 0, 302.28 0 M302.28 0 C316.77 0, 324.01 7.24, 324.01 21.73 M302.28 0 C316.77 0, 324.01 7.24, 324.01 21.73 M324.01 21.73 C324.01 37.8, 324.01 53.88, 324.01 65.18 M324.01 21.73 C324.01 37.89, 324.01 54.04, 324.01 65.18 M324.01 65.18 C324.01 79.66, 316.77 86.91, 302.28 86.91 M324.01 65.18 C324.01 79.66, 316.77 86.91, 302.28 86.91 M302.28 86.91 C235.16 86.91, 168.05 86.91, 21.73 86.91 M302.28 86.91 C204.16 86.91, 106.04 86.91, 21.73 86.91 M21.73 86.91 C7.24 86.91, 0 79.66, 0 65.18 M21.73 86.91 C7.24 86.91, 0 79.66, 0 65.18 M0 65.18 C0 54.72, 0 44.26, 0 21.73 M0 65.18 C0 47.94, 0 30.7, 0 21.73 M0 21.73 C0 7.24, 7.24 0, 21.73 0 M0 21.73 C0 7.24, 7.24 0, 21.73 0" stroke="#1e1e1e" stroke-width="1" fill="none"></path></g><g transform="translate(391.6334861245351 1723.8025780644425) rotate(0 90.78990173339844 12.5)"><text x="0" y="0" font-family="Virgil, Segoe UI Emoji" font-size="20px" fill="#1e1e1e" text-anchor="start" style="white-space: pre;" direction="ltr" dominant-baseline="text-before-edge">High priority Queue</text></g><g stroke-linecap="round"><g transform="translate(595.6751519732966 1757.8095223725693) rotate(0 -141.6956012838621 -52.04882768548714)"><path d="M0 0 C-39.05 -0.79, -187.04 13.38, -234.27 -4.72 C-281.5 -22.83, -275.2 -91.31, -283.39 -108.63" stroke="#1e1e1e" stroke-width="1.5" fill="none" stroke-dasharray="8 9"></path></g><g transform="translate(595.6751519732966 1757.8095223725693) rotate(0 -141.6956012838621 -52.04882768548714)"><path d="M-283.39 -108.63 L-274.53 -96.53 L-286.96 -94.06 L-283.39 -108.63" stroke="none" stroke-width="0" fill="#1e1e1e" fill-rule="evenodd"></path><path d="M-283.39 -108.63 C-280.72 -104.98, -278.04 -101.33, -274.53 -96.53 M-274.53 -96.53 C-278.49 -95.75, -282.45 -94.96, -286.96 -94.06 M-286.96 -94.06 C-286.2 -97.18, -285.44 -100.29, -283.39 -108.63 M-283.39 -108.63 C-283.39 -108.63, -283.39 -108.63, -283.39 -108.63" stroke="#1e1e1e" stroke-width="1.5" fill="none"></path></g></g><mask></mask><g stroke-linecap="round" transform="translate(624.014272230069 1749.3077862955374) rotate(0 36.36853766285793 17.5)"><path d="M8.75 0 C22.08 0, 35.41 0, 63.99 0 M8.75 0 C25.05 0, 41.36 0, 63.99 0 M63.99 0 C69.82 0, 72.74 2.92, 72.74 8.75 M63.99 0 C69.82 0, 72.74 2.92, 72.74 8.75 M72.74 8.75 C72.74 13.33, 72.74 17.91, 72.74 26.25 M72.74 8.75 C72.74 14.72, 72.74 20.7, 72.74 26.25 M72.74 26.25 C72.74 32.08, 69.82 35, 63.99 35 M72.74 26.25 C72.74 32.08, 69.82 35, 63.99 35 M63.99 35 C47.16 35, 30.34 35, 8.75 35 M63.99 35 C49.43 35, 34.87 35, 8.75 35 M8.75 35 C2.92 35, 0 32.08, 0 26.25 M8.75 35 C2.92 35, 0 32.08, 0 26.25 M0 26.25 C0 19.66, 0 13.07, 0 8.75 M0 26.25 C0 20.39, 0 14.54, 0 8.75 M0 8.75 C0 2.92, 2.92 0, 8.75 0 M0 8.75 C0 2.92, 2.92 0, 8.75 0" stroke="#1e1e1e" stroke-width="1" fill="none"></path></g><g transform="translate(646.6728184378487 1754.3077862955374) rotate(0 13.709991455078125 12.5)"><text x="13.709991455078125" y="0" font-family="Virgil, Segoe UI Emoji" font-size="20px" fill="#1e1e1e" text-anchor="middle" style="white-space: pre;" direction="ltr" dominant-baseline="text-before-edge">CB</text></g><g stroke-linecap="round" transform="translate(624.5678988111449 1900.0587502375074) rotate(0 36.36853766285793 17.5)"><path d="M8.75 0 C20.5 0, 32.25 0, 63.99 0 M8.75 0 C29.23 0, 49.71 0, 63.99 0 M63.99 0 C69.82 0, 72.74 2.92, 72.74 8.75 M63.99 0 C69.82 0, 72.74 2.92, 72.74 8.75 M72.74 8.75 C72.74 13.54, 72.74 18.34, 72.74 26.25 M72.74 8.75 C72.74 14.52, 72.74 20.28, 72.74 26.25 M72.74 26.25 C72.74 32.08, 69.82 35, 63.99 35 M72.74 26.25 C72.74 32.08, 69.82 35, 63.99 35 M63.99 35 C47.07 35, 30.15 35, 8.75 35 M63.99 35 C47.1 35, 30.22 35, 8.75 35 M8.75 35 C2.92 35, 0 32.08, 0 26.25 M8.75 35 C2.92 35, 0 32.08, 0 26.25 M0 26.25 C0 22.51, 0 18.76, 0 8.75 M0 26.25 C0 20.79, 0 15.32, 0 8.75 M0 8.75 C0 2.92, 2.92 0, 8.75 0 M0 8.75 C0 2.92, 2.92 0, 8.75 0" stroke="#1e1e1e" stroke-width="1" fill="none"></path></g><g transform="translate(647.2264450189247 1905.0587502375074) rotate(0 13.709991455078125 12.5)"><text x="13.709991455078125" y="0" font-family="Virgil, Segoe UI Emoji" font-size="20px" fill="#1e1e1e" text-anchor="middle" style="white-space: pre;" direction="ltr" dominant-baseline="text-before-edge">CB</text></g><g stroke-linecap="round" transform="translate(707.1423583166014 1750.25242363743) rotate(0 43.925636397997266 17.5)"><path d="M8.75 0 C30 0, 51.26 0, 79.1 0 M8.75 0 C35.32 0, 61.89 0, 79.1 0 M79.1 0 C84.93 0, 87.85 2.92, 87.85 8.75 M79.1 0 C84.93 0, 87.85 2.92, 87.85 8.75 M87.85 8.75 C87.85 14.08, 87.85 19.41, 87.85 26.25 M87.85 8.75 C87.85 15.57, 87.85 22.39, 87.85 26.25 M87.85 26.25 C87.85 32.08, 84.93 35, 79.1 35 M87.85 26.25 C87.85 32.08, 84.93 35, 79.1 35 M79.1 35 C62.99 35, 46.88 35, 8.75 35 M79.1 35 C59.39 35, 39.67 35, 8.75 35 M8.75 35 C2.92 35, 0 32.08, 0 26.25 M8.75 35 C2.92 35, 0 32.08, 0 26.25 M0 26.25 C0 19.94, 0 13.63, 0 8.75 M0 26.25 C0 21.22, 0 16.19, 0 8.75 M0 8.75 C0 2.92, 2.92 0, 8.75 0 M0 8.75 C0 2.92, 2.92 0, 8.75 0" stroke="#1e1e1e" stroke-width="1" fill="none"></path></g><g transform="translate(737.3580032595205 1755.25242363743) rotate(0 13.709991455078125 12.5)"><text x="13.709991455078125" y="0" font-family="Virgil, Segoe UI Emoji" font-size="20px" fill="#1e1e1e" text-anchor="middle" style="white-space: pre;" direction="ltr" dominant-baseline="text-before-edge">CB</text></g><g stroke-linecap="round" transform="translate(707.6959848976774 1901.0033875793997) rotate(0 43.925636397997266 17.5)"><path d="M8.75 0 C32.05 0, 55.34 0, 79.1 0 M8.75 0 C30 0, 51.26 0, 79.1 0 M79.1 0 C84.93 0, 87.85 2.92, 87.85 8.75 M79.1 0 C84.93 0, 87.85 2.92, 87.85 8.75 M87.85 8.75 C87.85 14.73, 87.85 20.7, 87.85 26.25 M87.85 8.75 C87.85 13.4, 87.85 18.05, 87.85 26.25 M87.85 26.25 C87.85 32.08, 84.93 35, 79.1 35 M87.85 26.25 C87.85 32.08, 84.93 35, 79.1 35 M79.1 35 C54.27 35, 29.44 35, 8.75 35 M79.1 35 C58.48 35, 37.86 35, 8.75 35 M8.75 35 C2.92 35, 0 32.08, 0 26.25 M8.75 35 C2.92 35, 0 32.08, 0 26.25 M0 26.25 C0 22.58, 0 18.91, 0 8.75 M0 26.25 C0 20.77, 0 15.3, 0 8.75 M0 8.75 C0 2.92, 2.92 0, 8.75 0 M0 8.75 C0 2.92, 2.92 0, 8.75 0" stroke="#1e1e1e" stroke-width="1" fill="none"></path></g><g transform="translate(737.9116298405964 1906.0033875793997) rotate(0 13.709991455078125 12.5)"><text x="13.709991455078125" y="0" font-family="Virgil, Segoe UI Emoji" font-size="20px" fill="#1e1e1e" text-anchor="middle" style="white-space: pre;" direction="ltr" dominant-baseline="text-before-edge">CB</text></g><g stroke-linecap="round" transform="translate(595.6751519732966 1873.0552780834437) rotate(0 179.48109495955862 49.59346044935177)"><path d="M24.8 0 C89 0, 153.2 0, 334.17 0 M24.8 0 C103.21 0, 181.62 0, 334.17 0 M334.17 0 C350.7 0, 358.96 8.27, 358.96 24.8 M334.17 0 C350.7 0, 358.96 8.27, 358.96 24.8 M358.96 24.8 C358.96 35.93, 358.96 47.07, 358.96 74.39 M358.96 24.8 C358.96 37.44, 358.96 50.08, 358.96 74.39 M358.96 74.39 C358.96 90.92, 350.7 99.19, 334.17 99.19 M358.96 74.39 C358.96 90.92, 350.7 99.19, 334.17 99.19 M334.17 99.19 C260.2 99.19, 186.23 99.19, 24.8 99.19 M334.17 99.19 C237.55 99.19, 140.93 99.19, 24.8 99.19 M24.8 99.19 C8.27 99.19, 0 90.92, 0 74.39 M24.8 99.19 C8.27 99.19, 0 90.92, 0 74.39 M0 74.39 C0 59.17, 0 43.95, 0 24.8 M0 74.39 C0 61.4, 0 48.42, 0 24.8 M0 24.8 C0 8.27, 8.27 0, 24.8 0 M0 24.8 C0 8.27, 8.27 0, 24.8 0" stroke="#1e1e1e" stroke-width="1" fill="none"></path></g><g transform="translate(687.3049741368608 1990.190308478103) rotate(0 59.359947204589844 12.5)"><text x="0" y="0" font-family="Virgil, Segoe UI Emoji" font-size="20px" fill="#1e1e1e" text-anchor="start" style="white-space: pre;" direction="ltr" dominant-baseline="text-before-edge">Task Queue</text></g><g stroke-linecap="round"><g transform="translate(969.7515393626925 1435.6881887872562) rotate(0 75.10551786072836 243.7164342082427)"><path d="M0 0 C26.61 43.77, 161.22 181.37, 159.64 262.61 C158.07 343.85, 18.74 449.96, -9.45 487.43" stroke="#1e1e1e" stroke-width="1.5" fill="none" stroke-dasharray="8 9"></path></g><g transform="translate(969.7515393626925 1435.6881887872562) rotate(0 75.10551786072836 243.7164342082427)"><path d="M-9.45 487.43 L-4.47 473.28 L4.59 482.15 L-9.45 487.43" stroke="none" stroke-width="0" fill="#1e1e1e" fill-rule="evenodd"></path><path d="M-9.45 487.43 C-7.99 483.3, -6.54 479.17, -4.47 473.28 M-4.47 473.28 C-2.47 475.24, -0.47 477.2, 4.59 482.15 M4.59 482.15 C-0.6 484.1, -5.79 486.06, -9.45 487.43 M-9.45 487.43 C-9.45 487.43, -9.45 487.43, -9.45 487.43" stroke="#1e1e1e" stroke-width="1.5" fill="none"></path></g></g><mask></mask><g stroke-linecap="round"><g transform="translate(588.1180532381572 1929.7335185969887) rotate(0 -166.6242937736088 -134.11429425563819)"><path d="M0 0 C-49.75 -2.52, -243.4 31.17, -298.51 -15.11 C-353.61 -61.4, -325.27 -233.96, -330.62 -277.72" stroke="#1e1e1e" stroke-width="1.5" fill="none" stroke-dasharray="8 9"></path></g><g transform="translate(588.1180532381572 1929.7335185969887) rotate(0 -166.6242937736088 -134.11429425563819)"><path d="M-330.62 -277.72 L-324.51 -264.03 L-337.19 -264.24 L-330.62 -277.72" stroke="none" stroke-width="0" fill="#1e1e1e" fill-rule="evenodd"></path><path d="M-330.62 -277.72 C-329.03 -274.15, -327.43 -270.58, -324.51 -264.03 M-324.51 -264.03 C-328.62 -264.09, -332.73 -264.16, -337.19 -264.24 M-337.19 -264.24 C-334.96 -268.81, -332.73 -273.38, -330.62 -277.72 M-330.62 -277.72 C-330.62 -277.72, -330.62 -277.72, -330.62 -277.72" stroke="#1e1e1e" stroke-width="1.5" fill="none"></path></g></g><mask></mask><g stroke-linecap="round"><g transform="translate(688.2496114787532 1382.788497641281) rotate(0 64.70765791963038 2.361593354731042)"><path d="M0 0 C21.57 0.79, 107.85 3.94, 129.42 4.72" stroke="#1e1e1e" stroke-width="1.5" fill="none" stroke-dasharray="8 9"></path></g><g transform="translate(688.2496114787532 1382.788497641281) rotate(0 64.70765791963038 2.361593354731042)"><path d="M129.42 4.72 L115.6 10.56 L116.06 -2.11 L129.42 4.72" stroke="none" stroke-width="0" fill="#1e1e1e" fill-rule="evenodd"></path><path d="M129.42 4.72 C126.02 6.16, 122.62 7.6, 115.6 10.56 M115.6 10.56 C115.78 5.67, 115.96 0.77, 116.06 -2.11 M116.06 -2.11 C121.23 0.54, 126.39 3.18, 129.42 4.72 M129.42 4.72 C129.42 4.72, 129.42 4.72, 129.42 4.72" stroke="#1e1e1e" stroke-width="1.5" fill="none"></path></g></g><mask></mask><g stroke-linecap="round"><g transform="translate(356.6303542627175 1472.3246739236558) rotate(0 106.28550334074075 -43.604309062868)"><path d="M0 0 C35.43 -14.53, 177.14 -72.67, 212.57 -87.21 M0 0 C35.43 -14.53, 177.14 -72.67, 212.57 -87.21" stroke="#1e1e1e" stroke-width="1" fill="none"></path></g><g transform="translate(356.6303542627175 1472.3246739236558) rotate(0 106.28550334074075 -43.604309062868)"><path d="M212.57 -87.21 L202.4 -76.18 L197.59 -87.91 L212.57 -87.21" stroke="none" stroke-width="0" fill="#1e1e1e" fill-rule="evenodd"></path><path d="M212.57 -87.21 C209.42 -83.79, 206.26 -80.37, 202.4 -76.18 M212.57 -87.21 C209.07 -83.42, 205.58 -79.63, 202.4 -76.18 M202.4 -76.18 C201 -79.59, 199.61 -82.99, 197.59 -87.91 M202.4 -76.18 C200.7 -80.33, 198.99 -84.48, 197.59 -87.91 M197.59 -87.91 C201.39 -87.73, 205.19 -87.56, 212.57 -87.21 M197.59 -87.91 C203.53 -87.63, 209.47 -87.35, 212.57 -87.21 M212.57 -87.21 C212.57 -87.21, 212.57 -87.21, 212.57 -87.21 M212.57 -87.21 C212.57 -87.21, 212.57 -87.21, 212.57 -87.21" stroke="#1e1e1e" stroke-width="1" fill="none"></path></g></g><mask></mask><g transform="translate(247.61958160554747 1964.2357855391353) rotate(0 88.71994018554685 12.5)"><text x="0" y="0" font-family="Virgil, Segoe UI Emoji" font-size="20px" fill="#1e1e1e" text-anchor="start" style="white-space: pre;" direction="ltr" dominant-baseline="text-before-edge">Add to call stack</text></g><g transform="translate(1176.9364185079216 1434.1709034936462) rotate(0 111.44990539550781 62.5)"><text x="0" y="0" font-family="Virgil, Segoe UI Emoji" font-size="20px" fill="#1e1e1e" text-anchor="start" style="white-space: pre;" direction="ltr" dominant-baseline="text-before-edge">Example set time out </text><text x="0" y="25" font-family="Virgil, Segoe UI Emoji" font-size="20px" fill="#1e1e1e" text-anchor="start" style="white-space: pre;" direction="ltr" dominant-baseline="text-before-edge"></text><text x="0" y="50" font-family="Virgil, Segoe UI Emoji" font-size="20px" fill="#1e1e1e" text-anchor="start" style="white-space: pre;" direction="ltr" dominant-baseline="text-before-edge">1 </text><text x="0" y="75" font-family="Virgil, Segoe UI Emoji" font-size="20px" fill="#1e1e1e" text-anchor="start" style="white-space: pre;" direction="ltr" dominant-baseline="text-before-edge">0, 2</text><text x="0" y="100" font-family="Virgil, Segoe UI Emoji" font-size="20px" fill="#1e1e1e" text-anchor="start" style="white-space: pre;" direction="ltr" dominant-baseline="text-before-edge">3</text></g></svg>